:version 1.10
:name ASF
:units
  mass 1
  length 1
  angle deg
:documentation
  ASF file generated by Kaydara
:root
  axis xyz
  order  tx ty tz rx ry rz
  position 0 0 0
  orientation 0 0 0
:bonedata
  begin
    id 1
    name RightUpLegDummy
    direction -0.65628 -0.754516 0.00165102
    length 4.76918
    axis 0 0 0 xyz
  end
  begin
    id 2
    name RightUpLeg
    direction -0.145584 -0.923362 0.355256
    length 17.9961
    axis -24.7611 -13.1006 1.78531 xyz
    dof rx ry rz
  end
  begin
    id 3
    name RightLeg
    direction 0.263379 0.172355 -0.949171
    length 13.3386
    axis 89.6202 -21.1929 12.3855 xyz
    dof rx ry rz
  end
  begin
    id 4
    name RightFoot
    direction 0.224283 -0.968777 -0.105675
    length 5.86697
    axis 56.995 -39.6905 17.3365 xyz
    dof rx ry rz
  end
  begin
    id 5
    name RightToes
    direction -0.0806345 -0.9037 0.420506
    length 4.75197
    axis 146.825 -39.7828 17.6019 xyz
    dof rx ry rz
  end
  begin
    id 6
    name SpineDummy
    direction -3.39852e-014 1 9.33296e-014
    length 8.13779
    axis 0 0 0 xyz
  end
  begin
    id 7
    name Spine
    direction -0.156609 0.733703 0.661176
    length 7.14978
    axis 41.2365 5.68757 17.0844 xyz
    dof rx ry rz
  end
  begin
    id 8
    name Spine1
    direction 0 0 0
    length 0
    axis 42.8809 47.8308 -3.36039 xyz
    dof rx ry rz
  end
  begin
    id 9
    name HEadDummy
    direction 0.546431 0.701947 0.456819
    length 3.55512
    axis 42.8809 47.8308 -3.36039 xyz
  end
  begin
    id 10
    name HEad
    direction 0.23444 0.828559 0.508457
    length 7.35827
    axis 51.1864 49.2662 27.4903 xyz
    dof rx ry rz
  end
  begin
    id 11
    name LeftShoulder1Dummy
    direction 0.431183 0.475873 -0.766568
    length 2.49352
    axis 42.8809 47.8308 -3.36039 xyz
  end
  begin
    id 12
    name LeftShoulder1
    direction 0.268187 -0.383402 -0.883786
    length 4.48604
    axis -119.517 0.106469 35.1736 xyz
    dof rx ry rz
  end
  begin
    id 13
    name LeftArm
    direction 0.380567 -0.703221 -0.600541
    length 10.1142
    axis -5.41825 36.2925 7.8293 xyz
    dof rx ry rz
  end
  begin
    id 14
    name LeftForeArm
    direction 0.541071 -0.732356 -0.413396
    length 9.39839
    axis 4.65387 33.7604 7.81644 xyz
    dof rx ry rz
  end
  begin
    id 15
    name LeftHand
    direction 0.847511 -0.389379 -0.360707
    length 3.66142
    axis 7.65593 21.1436 -24.6758 xyz
    dof rx ry rz
  end
  begin
    id 16
    name RightShoulderDummy
    direction -0.692546 0.541855 0.476208
    length 2.49352
    axis 42.8809 47.8308 -3.36039 xyz
  end
  begin
    id 17
    name RightShoulder
    direction -0.870808 -0.316653 0.376065
    length 4.48602
    axis 141.571 51.133 -100.254 xyz
    dof rx ry rz
  end
  begin
    id 18
    name RightArm
    direction 0.366897 -0.87275 0.322015
    length 10.1142
    axis 92.3258 71.2036 138.917 xyz
    dof rx ry rz
  end
  begin
    id 19
    name RightForeArm
    direction 0.702487 -0.694568 0.155197
    length 9.39835
    axis 153.863 41.5092 -176.604 xyz
    dof rx ry rz
  end
  begin
    id 20
    name RightHand
    direction 0.79502 -0.601276 0.0800636
    length 3.66142
    axis 154.247 4.59222 142.9 xyz
    dof rx ry rz
  end
  begin
    id 21
    name LeftUpLegDummy
    direction 0.65628 -0.754516 0.00165102
    length 4.76919
    axis 0 0 0 xyz
  end
  begin
    id 22
    name LeftUpLeg
    direction -0.1277 -0.689368 0.713067
    length 17.9961
    axis -48.3385 -17.8675 0.791927 xyz
    dof rx ry rz
  end
  begin
    id 23
    name LeftLeg
    direction 0.109849 -0.991246 -0.0732378
    length 13.3386
    axis -2.05791 -7.30784 1.72042 xyz
    dof rx ry rz
  end
  begin
    id 24
    name LeftFoot
    direction 0.0448355 -0.272614 0.961078
    length 5.86697
    axis -18.7733 -7.89606 10.2113 xyz
    dof rx ry rz
  end
  begin
    id 25
    name LeftToes
    direction -0.18506 0.293668 0.937823
    length 4.75197
    axis 71.2267 -7.89606 10.2113 xyz
    dof rx ry rz
  end
:hierarchy
  begin
    root RightUpLegDummy SpineDummy LeftUpLegDummy
    RightUpLegDummy RightUpLeg
    RightUpLeg RightLeg
    RightLeg RightFoot
    RightFoot RightToes
    SpineDummy Spine
    Spine Spine1
    Spine1 HEadDummy LeftShoulder1Dummy RightShoulderDummy
    HEadDummy HEad
    LeftShoulder1Dummy LeftShoulder1
    LeftShoulder1 LeftArm
    LeftArm LeftForeArm
    LeftForeArm LeftHand
    RightShoulderDummy RightShoulder
    RightShoulder RightArm
    RightArm RightForeArm
    RightForeArm RightHand
    LeftUpLegDummy LeftUpLeg
    LeftUpLeg LeftLeg
    LeftLeg LeftFoot
    LeftFoot LeftToes
  end

:SAMPLES-PER-SECOND 30
:FULLY-SPECIFIED
:DEGREES
212
root  0.0265012 39.6005 8.33376 170.338 -9.41076 -177.259
RightUpLeg  30.143 9.2462 9.06132
RightLeg  -93.8603 -12.104 1.42684
RightFoot  23.9204 4.15747 -15.4999
RightToes  -1.27222e-014 -6.36111e-015 6.36111e-015
Spine  -36.9364 -3.87439 -2.9568
Spine1  6.40044 -6.74741 39.7812
HEad  6.9973 -30.1261 -18.5008
LeftShoulder1  6.36111e-015 -1.33558e-015 6.49777e-015
LeftArm  43.2322 6.8629 -30.7256
LeftForeArm  -16.6656 -42.0044 9.32091
LeftHand  -0.881192 -0.538812 -8.68357
RightShoulder  -4.77083e-015 -6.36111e-015 -3.18055e-015
RightArm  32.7771 -4.22853 12.84
RightForeArm  -9.98975 4.51238 -12.5728
RightHand  0.277211 -0.923851 -0.811583
LeftUpLeg  29.052 20.6023 24.3623
LeftLeg  -9.15126 -0.0889671 -1.40925
LeftFoot  7.45337 1.06388 -2.91918
LeftToes  9.54166e-015 4.2066e-011 -8.07781e-011
213
root  -0.0470769 39.5204 7.18871 171.045 -11.055 -177.426
RightUpLeg  32.7491 8.96798 8.9628
RightLeg  -96.3301 -11.7195 1.7006
RightFoot  22.7706 3.89482 -14.9185
RightToes  -1.27222e-014 -6.36111e-015 6.36111e-015
Spine  -37.6255 -2.91633 -3.54726
Spine1  7.17277 -5.79313 36.5526
HEad  7.13798 -33.9675 -18.4168
LeftShoulder1  6.36111e-015 -1.33558e-015 6.49777e-015
LeftArm  41.9115 5.31093 -29.7394
LeftForeArm  -17.136 -42.3833 9.7183
LeftHand  -0.873986 -0.474614 -8.84774
RightShoulder  -4.77083e-015 -6.36111e-015 -3.18055e-015
RightArm  37.0453 -0.926178 16.7725
RightForeArm  -9.91757 -5.07146 -8.62301
RightHand  0.474354 -1.41098 -1.58246
LeftUpLeg  29.7076 18.0452 22.9579
LeftLeg  -24.1659 -3.84792 -2.48234
LeftFoot  7.21484 0.51647 -1.43699
LeftToes  9.54166e-015 4.2066e-011 -8.07781e-011
214
root  -0.215266 39.0469 6.08985 171.474 -12.4158 -177.363
RightUpLeg  34.9536 8.78786 9.34317
RightLeg  -96.8937 -11.5998 2.99431
RightFoot  19.2123 4.3303 -14.9257
RightToes  -1.27222e-014 -6.36111e-015 6.36111e-015
Spine  -37.3299 -1.87582 -3.33146
Spine1  7.67628 -5.0234 33.6822
HEad  6.90392 -36.197 -18.8844
LeftShoulder1  6.36111e-015 -1.33558e-015 6.49777e-015
LeftArm  39.9129 3.40501 -29.8153
LeftForeArm  -17.7611 -42.4121 9.98467
LeftHand  -0.730132 -0.119923 -8.39747
RightShoulder  -4.77083e-015 -6.36111e-015 -3.18055e-015
RightArm  37.9589 0.486903 16.5752
RightForeArm  -8.73633 -8.7769 -2.48164
RightHand  0.377958 -1.27083 -1.08358
LeftUpLeg  29.6557 12.121 19.8571
LeftLeg  -33.1641 -7.66438 -2.12509
LeftFoot  6.22909 1.805 -5.08848
LeftToes  9.54166e-015 4.2066e-011 -8.07781e-011
215
root  -0.514945 38.4197 5.05942 171.198 -14.8943 -177.898
RightUpLeg  37.7259 8.42611 8.90338
RightLeg  -97.0231 -11.6172 5.28636
RightFoot  14.313 5.1475 -15.3611
RightToes  -1.27222e-014 -6.36111e-015 6.36111e-015
Spine  -35.7209 -2.21513 -3.06093
Spine1  8.48886 -5.15149 31.6751
HEad  5.2925 -37.2806 -19.4063
LeftShoulder1  6.36111e-015 -1.33558e-015 6.49777e-015
LeftArm  36.2832 0.719402 -31.5172
LeftForeArm  -17.7173 -42.2572 9.87863
LeftHand  -0.419358 0.602436 -7.38473
RightShoulder  -4.77083e-015 -6.36111e-015 -3.18055e-015
RightArm  31.2772 -3.69319 6.33257
RightForeArm  -1.01574 -1.14371 6.7596
RightHand  0.071002 -0.492933 0.151687
LeftUpLeg  28.1582 11.3861 18.0873
LeftLeg  -32.6429 -12.4848 1.6056
LeftFoot  7.64833 3.72375 -10.0853
LeftToes  9.54166e-015 4.2066e-011 -8.07781e-011
216
root  -0.988464 37.7628 4.07922 170.621 -18.6927 -179.08
RightUpLeg  40.029 8.07577 7.60696
RightLeg  -94.8576 -12.2418 7.63679
RightFoot  9.40463 4.43742 -13.021
RightToes  -1.27222e-014 -6.36111e-015 6.36111e-015
Spine  -33.4023 -3.18661 -2.42695
Spine1  10.2872 -5.77161 29.8779
HEad  1.59176 -39.2744 -18.679
LeftShoulder1  6.36111e-015 -1.33558e-015 6.49777e-015
LeftArm  30.7805 -3.82456 -35.519
LeftForeArm  -16.0281 -42.2073 9.17778
LeftHand  0.117426 1.85423 -5.98666
RightShoulder  -4.77083e-015 -6.36111e-015 -3.18055e-015
RightArm  27.9367 -9.91627 -2.42971
RightForeArm  3.56763 1.83314 11.2158
RightHand  0.188544 -0.766564 -0.367883
LeftUpLeg  25.2412 10.1642 13.9204
LeftLeg  -25.236 -12.8826 0.859355
LeftFoot  12.7554 4.73535 -11.2907
LeftToes  9.54166e-015 4.2066e-011 -8.07781e-011
217
root  -1.59667 37.1664 3.11218 170.692 -21.8585 179.343
RightUpLeg  39.1658 8.00779 5.39757
RightLeg  -86.9743 -14.2874 8.34634
RightFoot  7.39792 1.89301 -7.49381
RightToes  -1.27222e-014 -6.36111e-015 6.36111e-015
Spine  -30.9959 -3.9423 -2.16194
Spine1  12.5578 -6.0087 28.4599
HEad  -3.19522 -42.3449 -16.466
LeftShoulder1  6.36111e-015 -1.33558e-015 6.49777e-015
LeftArm  25.5317 -9.55705 -41.247
LeftForeArm  -14.6324 -43.0182 9.03738
LeftHand  0.599539 2.87368 -4.66849
RightShoulder  -4.77083e-015 -6.36111e-015 -3.18055e-015
RightArm  29.6339 -16.3408 -8.19961
RightForeArm  1.16198 -1.74874 10.3872
RightHand  0.992281 -1.99719 -4.34311
LeftUpLeg  22.1312 10.8544 10.733
LeftLeg  -17.0431 -12.6801 -0.221499
LeftFoot  16.5178 4.91027 -10.7437
LeftToes  9.54166e-015 4.2066e-011 -8.07781e-011
218
root  -2.18746 36.7329 2.14616 171.76 -22.6508 176.995
RightUpLeg  34.1036 9.26927 2.4927
RightLeg  -73.6377 -17.3841 7.69397
RightFoot  11.8985 -0.513767 -4.77487
RightToes  -1.27222e-014 -6.36111e-015 6.36111e-015
Spine  -28.1646 -5.96742 -4.87379
Spine1  13.9963 -6.11944 29.0202
HEad  -7.16998 -43.6738 -14.1116
LeftShoulder1  6.36111e-015 -1.33558e-015 6.49777e-015
LeftArm  22.3207 -14.1004 -47.0942
LeftForeArm  -16.5387 -45.434 11.2128
LeftHand  0.575061 2.64762 -4.17662
RightShoulder  -4.77083e-015 -6.36111e-015 -3.18055e-015
RightArm  33.6593 -21.6074 -10.7756
RightForeArm  -3.6591 -7.59708 8.86298
RightHand  1.72684 -1.72813 -9.69646
LeftUpLeg  19.8925 13.7428 9.54919
LeftLeg  -10.1706 -13.5237 -0.722039
LeftFoot  14.6627 4.75266 -10.8438
LeftToes  9.54166e-015 4.2066e-011 -8.07781e-011
219
root  -2.71407 36.3164 1.18916 172.777 -21.371 174.398
RightUpLeg  26.547 11.5327 -0.353824
RightLeg  -58.0998 -20.5725 6.25436
RightFoot  21.0169 -0.0846795 -8.63523
RightToes  -1.27222e-014 -6.36111e-015 6.36111e-015
Spine  -24.9765 -9.78366 -10.6387
Spine1  14.6837 -6.98184 32.2154
HEad  -9.75245 -41.2913 -12.7499
LeftShoulder1  6.36111e-015 -1.33558e-015 6.49777e-015
LeftArm  20.5105 -17.5549 -51.7836
LeftForeArm  -22.4117 -48.8005 16.3127
LeftHand  0.259754 1.87871 -4.64656
RightShoulder  -4.77083e-015 -6.36111e-015 -3.18055e-015
RightArm  37.2307 -25.5389 -11.105
RightForeArm  -6.55752 -10.8473 7.97743
RightHand  1.88851 -0.621649 -12.895
LeftUpLeg  18.9742 17.4652 9.72291
LeftLeg  -4.02228 -14.0727 -1.35276
LeftFoot  10.0054 4.12923 -10.5316
LeftToes  9.54166e-015 4.2066e-011 -8.07781e-011
220
root  -3.24772 35.9452 0.23706 172.695 -19.658 172.72
RightUpLeg  19.5303 12.6415 -2.76025
RightLeg  -44.5061 -23.7111 5.02907
RightFoot  25.6976 2.32082 -13.2541
RightToes  -1.27222e-014 -6.36111e-015 6.36111e-015
Spine  -22.768 -13.7638 -15.8112
Spine1  16.0072 -8.77161 35.967
HEad  -12.1876 -36.6437 -11.7251
LeftShoulder1  6.36111e-015 -1.33558e-015 6.49777e-015
LeftArm  19.1583 -23.1687 -54.8891
LeftForeArm  -29.5515 -51.5702 22.6026
LeftHand  0.189967 1.85844 -5.27358
RightShoulder  -4.77083e-015 -6.36111e-015 -3.18055e-015
RightArm  40.8611 -28.3333 -8.19754
RightForeArm  -10.5511 -13.8765 4.41606
RightHand  2.15235 -0.702199 -14.5776
LeftUpLeg  19.5992 20.1972 10.1792
LeftLeg  0.812189 -12.8658 -1.75492
LeftFoot  6.68331 3.27374 -9.09827
LeftToes  9.54166e-015 4.2066e-011 -8.07781e-011
